<svg version="1" xmlns="http://www.w3.org/2000/svg" width="1066.667" height="1066.667" viewBox="0 0 800.000000 800.000000"><path d="M372 1.6c-1.9.2-8.4.9-14.5 1.5-73.6 7.3-147.7 37.8-207.5 85.5-17.3 13.8-47.6 44.1-61.4 61.4-41.7 52.3-69.8 114.2-81.5 179.3-4.8 26.4-5.5 35.8-5.5 70.7 0 34.9.7 44.3 5.5 70.7 11.7 65.1 39.8 127 81.5 179.3 13.8 17.3 44.1 47.6 61.4 61.4 58.9 47 125.5 74.9 203.5 85.3 18.6 2.5 74.4 2.5 93 0 78-10.4 144.6-38.3 203.5-85.3 17.3-13.8 47.6-44.1 61.4-61.4 47-58.9 74.9-125.5 85.3-203.5 2.5-18.6 2.5-74.4 0-93-10.4-78-38.3-144.6-85.3-203.5-13.8-17.3-44.1-47.6-61.4-61.4-57.9-46.1-124.7-74.5-199.5-84.7-11.6-1.6-21.8-2.1-45-2.4-16.5-.2-31.6-.1-33.5.1zm-15.5 259.8c16.1 7.9 22.7 30.1 18 60.9-5.4 36.1-26.5 62.8-63.6 80.6-5.7 2.8-10.9 5.1-11.6 5.1-2.9 0-2.9 41 .1 55.8 4.6 22.4 16.9 32.6 35.2 29.3 11.2-2.1 17.7-6.2 31.2-19.7 7-7.1 13.4-12.7 14.9-13 3.3-.9 7.3 1.2 9 4.6 1.8 3.6 1.6 15.8-.3 21.5-2.3 6.5-18.7 23.6-30.3 31.4-28.8 19.2-62.2 16.5-83.3-6.8-14.7-16.3-20.8-37.4-20.8-72.4 0-17.5-.1-18.8-1.7-18.3-5.3 1.5-33.4 4.7-54.4 6.2l-9.6.6-3.7 17.7c-6.3 29.2-14.3 62.2-16.6 68.5-2.6 6.7-8.9 14.2-13.7 16.2-5.1 2.2-14.2 1.8-19.3-.8-10.3-5.3-10.7-12.3-2.7-45.3 5.9-24.1 11.7-49.8 11.7-51.5 0-.6-4-1-10.2-1-12.5 0-16.9-1.1-20.2-5-5-6-4.2-17.6 1.7-23.8 4.2-4.3 10.6-6.1 24.9-6.9 13.4-.7 11.6 1.3 14.3-14.9 2.8-16.7 4.5-31.8 5.2-44.4.7-15.9-.6-22.8-5.2-27.9-3.3-3.6-3.4-3.6-11.2-3.6-6.6.1-8.7.5-13.3 2.9-8.2 4.2-18 12.6-25.7 21.8C94.6 342.1 91.5 345 88.7 345c-4.4 0-7.6-2.1-9.7-6.5-5.2-10.7.1-23.7 16.3-40.3 16.6-16.9 35-27 55.2-30.3 21.5-3.4 37.9 3.8 46 20.4 8 16.5 8.6 41.8 1.9 87.1-1.4 9.2-2.3 17-2.1 17.3.9.9 61.3-3.1 62.5-4.2.1-.1 1.6-6.5 3.1-14.1 13.2-64.2 40.9-109.1 71.1-115.4 7.7-1.6 17.3-.6 23.5 2.4zm356.3 9c3.7 1.9 6.2 6.2 6.2 10.7 0 7.5-25.8 99.8-39.7 142.3-9.3 28.5-10.4 30.5-18.3 32.6-6.6 1.8-12.7.5-16.7-3.5-1.9-1.9-3.3-4.3-3.3-5.6 0-3.4 7.3-45.5 12.1-69.9 9.2-46.8 19.1-90.5 21.5-95.3 3.2-6.4 8.9-11 15.9-12.8 4.8-1.3 18.7-.3 22.3 1.5zm-109.9 47.8c5.8 1.5 12.5 7.9 14 13.3s1.4 9.2-.4 15.1c-2 6.7-6.4 11.7-13.2 15.1-4.9 2.4-6.9 2.7-14.8 2.8-7.7 0-9.7-.4-13.9-2.5-6.5-3.3-10.3-8.2-11.6-14.8-3.9-20.6 15.9-35 39.9-29zm-118.2 68.2c2.9.8 7.4 2.4 10 3.7 6.9 3.3 18.1 15 22.5 23.4 3.8 7.4 7.8 20 7.8 24.8v2.8l5.8-.6c6.1-.8 19.4-3.3 19.9-3.9.2-.2 1.7-6.8 3.4-14.7 4.6-22.4 5.7-25.7 10.3-30.5 3.2-3.2 5.3-4.4 9.4-5.3 11-2.3 20.7-.7 23.1 3.7 1.7 3.2 1.3 9.9-1.4 23.3-6.2 30.4-10.6 59.3-13.4 87.8-2.1 20.5-2.6 22.1-8.2 26.3-5.1 3.8-19.6 4.4-26.1 1.2-6.6-3.4-7.4-11.8-3.9-41.4 1-8.5 1.7-15.6 1.6-15.8-.2-.2-3.1.2-6.6.8-3.5.5-8.5 1-11 1-4.5 0-4.6 0-5.8 4.2-7 24.9-24.1 44.3-45.1 50.9-8.5 2.8-23.9 3-32.5.5-19.6-5.7-33.4-20.4-39.7-42.1-3.2-11.1-3.1-31.9.1-45 6.7-27.6 25.4-48.2 49.3-54.5 8.8-2.3 23.1-2.6 30.5-.6zm176.7 90c4.2 2 6.2 3.8 8.1 7 7.2 12.3 4.8 30.3-5.2 39.8-8.1 7.7-23.9 9.7-34.7 4.4-4.3-2.1-6.5-4-8.6-7.3-9.3-14.7-4.3-37.2 9.8-43.9 5.8-2.7 9.1-3.3 17.3-3 5.9.2 8.9.9 13.3 3z"/><path d="M336.4 286.9c-9.5 5.8-20.7 29.4-28.4 60-3.4 13.9-6.3 29.1-5.7 29.8.3.3 4.3-1.5 8.9-3.8 12.2-6.3 24.1-18.4 29.6-29.9 4.9-10.3 6.9-17.6 8.3-31.1 1.5-14.7-.2-23.3-5-25.9-2.8-1.4-4.2-1.3-7.7.9zM459.3 420.1c-12.2 6-19 23.3-18 45.4.6 13.1 2.4 18.7 7.8 24.9 13.1 14.9 33.2 5.8 39.4-17.9l1.4-5.5-5.5-5.2c-9.6-9.1-15.2-23.9-14.1-37.6l.5-6.2h-3.7c-2 0-5.5.9-7.8 2.1z"/></svg>